<?xml version="1.0" encoding="UTF-8" standalone="no"?>
<!-- Generator: Adobe Illustrator 15.0.0, SVG Export Plug-In . SVG Version: 6.00 Build 0)  -->

<svg
   xmlns:dc="http://purl.org/dc/elements/1.1/"
   xmlns:cc="http://creativecommons.org/ns#"
   xmlns:rdf="http://www.w3.org/1999/02/22-rdf-syntax-ns#"
   xmlns:svg="http://www.w3.org/2000/svg"
   xmlns="http://www.w3.org/2000/svg"
   xmlns:sodipodi="http://sodipodi.sourceforge.net/DTD/sodipodi-0.dtd"
   xmlns:inkscape="http://www.inkscape.org/namespaces/inkscape"
   version="1.1"
   id="Layer_1"
   x="0px"
   y="0px"
   width="16.000017"
   height="15.99983"
   viewBox="0 0 16.000017 15.99983"
   enable-background="new 0 0 512 512"
   xml:space="preserve"
   inkscape:version="0.91 r13725"
   sodipodi:docname="rss-navigation.svg"><metadata
     id="metadata4292"><rdf:RDF><cc:Work
         rdf:about=""><dc:format>image/svg+xml</dc:format><dc:type
           rdf:resource="http://purl.org/dc/dcmitype/StillImage" /><dc:title></dc:title></cc:Work></rdf:RDF></metadata><defs
     id="defs4290" /><sodipodi:namedview
     pagecolor="#ffffff"
     bordercolor="#666666"
     borderopacity="1"
     objecttolerance="10"
     gridtolerance="10"
     guidetolerance="10"
     inkscape:pageopacity="0"
     inkscape:pageshadow="2"
     inkscape:window-width="2560"
     inkscape:window-height="1016"
     id="namedview4288"
     showgrid="false"
     inkscape:zoom="13.03125"
     inkscape:cx="33.156466"
     inkscape:cy="3.6445122"
     inkscape:window-x="0"
     inkscape:window-y="0"
     inkscape:window-maximized="1"
     inkscape:current-layer="Layer_1"
     fit-margin-top="1"
     fit-margin-right="1"
     fit-margin-bottom="1"
     fit-margin-left="1" /><path
     style="opacity:1;fill:#000000;fill-opacity:1;stroke:none;stroke-width:1;stroke-linecap:round;stroke-linejoin:miter;stroke-miterlimit:4;stroke-dasharray:none;stroke-dashoffset:0;stroke-opacity:0.54805196"
     d="m 1.005377,1 0,2.68448 c 6.230951,0 11.3033,5.07694 11.3033,11.31527 l 2.69134,8e-5 C 15.000017,7.2825 8.721287,1 1.005377,1 Z m -0.0032,4.75669 0,2.68314 c 1.747387,0 3.390446,0.68322 4.627428,1.92093 1.235697,1.2351 1.917498,2.88556 1.917498,4.63899 l 2.695364,0 c 0,-5.09702 -4.146702,-9.24306 -9.24029,-9.24306 z m 1.861319,5.5097 C 1.835357,11.26639 1,12.10503 1,13.12704 c 0,1.02741 0.835357,1.85672 1.863496,1.85672 1.032127,0 1.865882,-0.82927 1.865924,-1.85672 0,-1.02201 -0.833755,-1.86065 -1.865924,-1.86065 z"
     id="rect4294"
     inkscape:connector-curvature="0" /></svg>